<svg xmlns="http://www.w3.org/2000/svg" xmlns:xlink="http://www.w3.org/1999/xlink" viewBox="0 0 1021.34 321.96"><defs><style>.cls-1{fill:url(#linear-gradient);}.cls-2,.cls-3{fill:#fff;}.cls-3{font-size:154.28px;font-family:Gotham-Black, Gotham Black;font-weight:800;}</style><linearGradient id="linear-gradient" x1="1110.89" y1="-699.85" x2="1110.89" y2="-489.32" gradientTransform="translate(-1103.11 -239.9) rotate(45)" gradientUnits="userSpaceOnUse"><stop offset="0" stop-color="#172b4d"/><stop offset="1" stop-color="#fff"/></linearGradient></defs><title>Asset 6</title><g id="Layer_2" data-name="Layer 2"><g id="Calque_1" data-name="Calque 1"><path class="cls-1" d="M3.81,175,0,171.21,148.87,22.33l3.81,3.81a75,75,0,0,1,0,106L109.83,175A75,75,0,0,1,3.81,175Z"/><path class="cls-2" d="M297.74,171.21l-3.8,3.8a75,75,0,0,1-106,0l-42.84-42.84a75,75,0,0,1,0-106l3.8-3.81Z"/><circle class="cls-2" cx="149.11" cy="228.75" r="45.85"/><ellipse class="cls-2" cx="859.72" cy="249.96" rx="24.97" ry="24.6"/><text class="cls-3" transform="translate(362.09 131.14)"><tspan xml:space="preserve">AMINE   </tspan></text><text class="cls-3" transform="translate(362.26 275.14)">AZIZI</text></g></g></svg>