<svg xmlns="http://www.w3.org/2000/svg" xmlns:xlink="http://www.w3.org/1999/xlink" viewBox="0 0 996.78 134.62"><defs><style>.cls-1{fill:url(#linear-gradient);}.cls-2,.cls-3{fill:#fff;}.cls-3{font-size:115.65px;font-family:Gotham-Black, Gotham Black;font-weight:800;}</style><linearGradient id="linear-gradient" x1="-24.89" y1="-1108.03" x2="-24.89" y2="-1003.33" gradientTransform="translate(-677.74 815.22) rotate(45)" gradientUnits="userSpaceOnUse"><stop offset="0" stop-color="#172b4d"/><stop offset="1" stop-color="#fff"/></linearGradient></defs><title>Asset 7</title><g id="Layer_2" data-name="Layer 2"><g id="Calque_1" data-name="Calque 1"><path class="cls-1" d="M3.62,77.65,0,74,74,0l3.62,3.62a34.83,34.83,0,0,1,0,49.27L52.89,77.65A34.83,34.83,0,0,1,3.62,77.65Z"/><path class="cls-2" d="M148.06,74l-3.62,3.62a34.83,34.83,0,0,1-49.27,0L70.41,52.89a34.83,34.83,0,0,1,0-49.27L74,0Z"/><circle class="cls-2" cx="74.15" cy="102.65" r="22.8"/><ellipse class="cls-2" cx="631.18" cy="84" rx="16.43" ry="16.19"/><text class="cls-3" transform="translate(196.04 101.37)"><tspan xml:space="preserve">AMINE   </tspan></text><text class="cls-3" transform="translate(666.6 99.52)">AZIZI</text></g></g></svg>