<svg xmlns="http://www.w3.org/2000/svg" xmlns:xlink="http://www.w3.org/1999/xlink" viewBox="0 0 1040.34 321.96"><defs><style>.cls-1{fill:url(#Dégradé_sans_nom_67);}.cls-2{fill:url(#Dégradé_sans_nom_58);}.cls-3{fill:url(#Dégradé_sans_nom_38);}.cls-4{fill:url(#Dégradé_sans_nom_38-2);}.cls-5{font-size:154.28px;fill:#172b4d;font-family:Gotham-Black, Gotham Black;font-weight:800;}</style><linearGradient id="Dégradé_sans_nom_67" x1="529.08" y1="7.54" x2="529.08" y2="218.08" gradientTransform="translate(-191.5 -328.71) rotate(45)" gradientUnits="userSpaceOnUse"><stop offset="0" stop-color="#172b4d"/><stop offset="1" stop-color="#0072cc"/></linearGradient><linearGradient id="Dégradé_sans_nom_58" x1="488.91" y1="47.72" x2="699.44" y2="47.72" gradientTransform="translate(-191.5 -328.71) rotate(45)" gradientUnits="userSpaceOnUse"><stop offset="0" stop-color="#0052cc"/><stop offset="1" stop-color="#0082cc"/></linearGradient><linearGradient id="Dégradé_sans_nom_38" x1="589.19" y1="153.33" x2="680.88" y2="153.33" gradientTransform="translate(-191.5 -328.71) rotate(45)" gradientUnits="userSpaceOnUse"><stop offset="0" stop-color="#0080cc"/><stop offset="1" stop-color="#0052cc"/></linearGradient><linearGradient id="Dégradé_sans_nom_38-2" x1="1141.15" y1="-347.58" x2="1190.73" y2="-347.58" xlink:href="#Dégradé_sans_nom_38"/></defs><title>3Asset 1</title><g id="Layer_2" data-name="Layer 2"><g id="Calque_1" data-name="Calque 1"><path class="cls-1" d="M3.81,175,0,171.21,148.87,22.33l3.81,3.81a75,75,0,0,1,0,106L109.83,175A75,75,0,0,1,3.81,175Z"/><path class="cls-2" d="M297.74,171.21l-3.8,3.8a75,75,0,0,1-106,0l-42.84-42.84a75,75,0,0,1,0-106l3.8-3.81Z"/><circle class="cls-3" cx="149.11" cy="228.75" r="45.85"/><ellipse class="cls-4" cx="878.72" cy="249.96" rx="24.97" ry="24.6"/><text class="cls-5" transform="translate(381.09 131.14)"><tspan xml:space="preserve">AMINE   </tspan></text><text class="cls-5" transform="translate(381.26 275.14)">AZIZI</text></g></g></svg>