<svg xmlns="http://www.w3.org/2000/svg" xmlns:xlink="http://www.w3.org/1999/xlink" viewBox="0 0 869.05 117.37"><defs><style>.cls-1{fill:url(#Dégradé_sans_nom_67);}.cls-2{fill:url(#Dégradé_sans_nom_58);}.cls-3{fill:url(#Dégradé_sans_nom_38);}.cls-4{fill:url(#Dégradé_sans_nom_38-2);}.cls-5{font-size:100.83px;fill:#172b4d;font-family:Gotham-Black, Gotham Black;font-weight:800;}</style><linearGradient id="Dégradé_sans_nom_67" x1="153.89" y1="-790.57" x2="153.89" y2="-699.29" gradientTransform="translate(-590.98 462.52) rotate(45)" gradientUnits="userSpaceOnUse"><stop offset="0" stop-color="#172b4d"/><stop offset="1" stop-color="#0072cc"/></linearGradient><linearGradient id="Dégradé_sans_nom_58" x1="136.48" y1="-773.15" x2="227.75" y2="-773.15" gradientTransform="translate(-590.98 462.52) rotate(45)" gradientUnits="userSpaceOnUse"><stop offset="0" stop-color="#0052cc"/><stop offset="1" stop-color="#0082cc"/></linearGradient><linearGradient id="Dégradé_sans_nom_38" x1="179.95" y1="-727.36" x2="219.71" y2="-727.36" gradientTransform="translate(-590.98 462.52) rotate(45)" gradientUnits="userSpaceOnUse"><stop offset="0" stop-color="#0080cc"/><stop offset="1" stop-color="#0052cc"/></linearGradient><linearGradient id="Dégradé_sans_nom_38-2" x1="517.51" y1="-1082.26" x2="545.96" y2="-1082.26" xlink:href="#Dégradé_sans_nom_38"/></defs><title>3Asset 4</title><g id="Layer_2" data-name="Layer 2"><g id="Calque_1" data-name="Calque 1"><path class="cls-1" d="M0,64.54H0L64.54,0h0a34.83,34.83,0,0,1,0,49.27L49.27,64.54A34.83,34.83,0,0,1,0,64.54Z"/><path class="cls-2" d="M129.09,64.54h0a34.83,34.83,0,0,1-49.27,0L64.54,49.27A34.85,34.85,0,0,1,64.54,0h0Z"/><circle class="cls-3" cx="64.65" cy="89.49" r="19.88"/><ellipse class="cls-4" cx="550.29" cy="73.24" rx="14.33" ry="14.12"/><text class="cls-5" transform="translate(170.92 88.38)"><tspan xml:space="preserve">AMINE   </tspan></text><text class="cls-5" transform="translate(581.17 86.77)">AZIZI</text></g></g></svg>