<svg xmlns="http://www.w3.org/2000/svg" xmlns:xlink="http://www.w3.org/1999/xlink" viewBox="0 0 61.88 61.88"><defs><style>.cls-1{fill:url(#linear-gradient);}.cls-2{fill:url(#linear-gradient-2);}</style><linearGradient id="linear-gradient" x1="55.36" y1="6.52" x2="4.65" y2="57.23" gradientUnits="userSpaceOnUse"><stop offset="0" stop-color="#3a32b8"/><stop offset="1" stop-color="#4e66ff"/></linearGradient><linearGradient id="linear-gradient-2" x1="56.11" y1="7.27" x2="5.4" y2="57.98" xlink:href="#linear-gradient"/></defs><title>Asset 3</title><g id="Layer_2" data-name="Layer 2"><g id="OBJECTS"><path class="cls-1" d="M42.93,61.88H19A19,19,0,0,1,0,42.93V19A19,19,0,0,1,19,0h24a19,19,0,0,1,19,19v24A19,19,0,0,1,42.93,61.88ZM19,2.3A16.67,16.67,0,0,0,2.3,19v24A16.67,16.67,0,0,0,19,59.59h24A16.67,16.67,0,0,0,59.59,42.93V19A16.67,16.67,0,0,0,42.93,2.3Z"/><path class="cls-2" d="M39.2,14.6l-4.82-.1a7.05,7.05,0,0,0-7.21,7.05v4.57H22.69a.34.34,0,0,0-.33.34V32.2a.33.33,0,0,0,.33.33h4.48V47.06a.33.33,0,0,0,.33.33h5.93a.33.33,0,0,0,.33-.33V32.53h4.51a.33.33,0,0,0,.33-.29l.75-5.74a.34.34,0,0,0-.08-.26.3.3,0,0,0-.25-.12H33.76v-2.9A3.35,3.35,0,0,1,34.37,21a1.81,1.81,0,0,1,1.42-.55h3.4a.34.34,0,0,0,.34-.33V14.94A.35.35,0,0,0,39.2,14.6Z"/><path class="cls-1" d="M42.93,61.88H19A19,19,0,0,1,0,42.93V19A19,19,0,0,1,19,0h24a19,19,0,0,1,19,19v24A19,19,0,0,1,42.93,61.88ZM19,2.3A16.67,16.67,0,0,0,2.3,19v24A16.67,16.67,0,0,0,19,59.59h24A16.67,16.67,0,0,0,59.59,42.93V19A16.67,16.67,0,0,0,42.93,2.3Z"/><path class="cls-2" d="M39.2,14.6l-4.82-.1a7.05,7.05,0,0,0-7.21,7.05v4.57H22.69a.34.34,0,0,0-.33.34V32.2a.33.33,0,0,0,.33.33h4.48V47.06a.33.33,0,0,0,.33.33h5.93a.33.33,0,0,0,.33-.33V32.53h4.51a.33.33,0,0,0,.33-.29l.75-5.74a.34.34,0,0,0-.08-.26.3.3,0,0,0-.25-.12H33.76v-2.9A3.35,3.35,0,0,1,34.37,21a1.81,1.81,0,0,1,1.42-.55h3.4a.34.34,0,0,0,.34-.33V14.94A.35.35,0,0,0,39.2,14.6Z"/></g></g></svg>