<svg xmlns="http://www.w3.org/2000/svg" xmlns:xlink="http://www.w3.org/1999/xlink" viewBox="0 0 61.88 61.89"><defs><style>.cls-1{fill:url(#linear-gradient);}.cls-2{fill:url(#linear-gradient-2);}.cls-3{fill:url(#linear-gradient-3);}.cls-4{fill:url(#linear-gradient-4);}</style><linearGradient id="linear-gradient" x1="58.85" y1="3.03" x2="3.71" y2="58.18" gradientUnits="userSpaceOnUse"><stop offset="0" stop-color="#ff592c"/><stop offset="0.48" stop-color="#ff2ca0"/><stop offset="1" stop-color="#0e3a99"/></linearGradient><linearGradient id="linear-gradient-2" x1="58.85" y1="3.03" x2="3.71" y2="58.18" xlink:href="#linear-gradient"/><linearGradient id="linear-gradient-3" x1="58.85" y1="3.03" x2="3.71" y2="58.18" xlink:href="#linear-gradient"/><linearGradient id="linear-gradient-4" x1="58.79" y1="2.98" x2="3.65" y2="58.12" xlink:href="#linear-gradient"/></defs><title>Asset 2</title><g id="Layer_2" data-name="Layer 2"><g id="OBJECTS"><path class="cls-1" d="M42.93,61.89H19A19,19,0,0,1,0,42.93V19A19,19,0,0,1,19,0h24a19,19,0,0,1,19,19v24A19,19,0,0,1,42.93,61.89ZM19,2.3A16.67,16.67,0,0,0,2.3,19v24A16.67,16.67,0,0,0,19,59.59h24A16.67,16.67,0,0,0,59.59,42.93V19A16.67,16.67,0,0,0,42.93,2.3Z"/><path class="cls-2" d="M37.3,15.94H24.58a8.64,8.64,0,0,0-8.64,8.64V37.3A8.65,8.65,0,0,0,24.58,46H37.3A8.66,8.66,0,0,0,46,37.3V24.58A8.65,8.65,0,0,0,37.3,15.94ZM42.89,37.3a5.6,5.6,0,0,1-5.59,5.59H24.58A5.59,5.59,0,0,1,19,37.3V24.58A5.58,5.58,0,0,1,24.58,19H37.3a5.59,5.59,0,0,1,5.59,5.58Z"/><path class="cls-3" d="M30.94,24a7,7,0,1,0,7,7A7,7,0,0,0,30.94,24Zm0,10.74a3.77,3.77,0,1,1,3.77-3.77A3.77,3.77,0,0,1,30.94,34.71Z"/><path class="cls-4" d="M38.75,21A2.07,2.07,0,1,0,40.82,23,2.07,2.07,0,0,0,38.75,21Z"/><path class="cls-1" d="M42.93,61.89H19A19,19,0,0,1,0,42.93V19A19,19,0,0,1,19,0h24a19,19,0,0,1,19,19v24A19,19,0,0,1,42.93,61.89ZM19,2.3A16.67,16.67,0,0,0,2.3,19v24A16.67,16.67,0,0,0,19,59.59h24A16.67,16.67,0,0,0,59.59,42.93V19A16.67,16.67,0,0,0,42.93,2.3Z"/><path class="cls-2" d="M37.3,15.94H24.58a8.64,8.64,0,0,0-8.64,8.64V37.3A8.65,8.65,0,0,0,24.58,46H37.3A8.66,8.66,0,0,0,46,37.3V24.58A8.65,8.65,0,0,0,37.3,15.94ZM42.89,37.3a5.6,5.6,0,0,1-5.59,5.59H24.58A5.59,5.59,0,0,1,19,37.3V24.58A5.58,5.58,0,0,1,24.58,19H37.3a5.59,5.59,0,0,1,5.59,5.58Z"/><path class="cls-3" d="M30.94,24a7,7,0,1,0,7,7A7,7,0,0,0,30.94,24Zm0,10.74a3.77,3.77,0,1,1,3.77-3.77A3.77,3.77,0,0,1,30.94,34.71Z"/><path class="cls-4" d="M38.75,21A2.07,2.07,0,1,0,40.82,23,2.07,2.07,0,0,0,38.75,21Z"/></g></g></svg>