<svg xmlns="http://www.w3.org/2000/svg" viewBox="0 0 60.57 102.48"><defs><style>.cls-1{fill:#555253;opacity:0.3;}.cls-2{fill:#343233;}</style></defs><title>-2Asset 2</title><g id="Layer_2" data-name="Layer 2"><g id="Layer_1-2" data-name="Layer 1"><path class="cls-1" d="M60.57,21.12V5.28s-16.2-.16-17.3-.16C36,5.12,25.42,13.45,25.42,22.9v17H10.25v18h15v44.63H42.93V57.65H58.58l2-17.58H43.14V27.16A6,6,0,0,1,49,21C51.31,21,60.57,21.12,60.57,21.12Z"/><path class="cls-2" d="M50.33,16V.15L33,0C25.7,0,15.17,8.33,15.17,17.78v17H0v18H15V97.36H32.68V52.52H48.33l2-17.57H32.89V22a6,6,0,0,1,5.83-6.13C41.06,15.91,50.33,16,50.33,16Z"/></g></g></svg>