<svg xmlns="http://www.w3.org/2000/svg" viewBox="0 0 111.45 106.32"><defs><style>.cls-1{opacity:0.3;}.cls-2{fill:#555253;}.cls-3{fill:#343233;}</style></defs><title>-2Asset 1</title><g id="Layer_2" data-name="Layer 2"><g id="Layer_1-2" data-name="Layer 1"><g class="cls-1"><path class="cls-2" d="M80.18,106.32H41.51A31.29,31.29,0,0,1,10.25,75.06V36.39A31.3,31.3,0,0,1,41.51,5.12H80.18a31.31,31.31,0,0,1,31.27,31.27V75.06A31.3,31.3,0,0,1,80.18,106.32ZM41.51,16.4a20,20,0,0,0-20,20V75.06a20,20,0,0,0,20,20H80.18a20,20,0,0,0,20-20V36.39a20,20,0,0,0-20-20Z"/><path class="cls-2" d="M60.85,81.59A25.87,25.87,0,1,1,86.71,55.72,25.91,25.91,0,0,1,60.85,81.59Zm0-41.58A15.71,15.71,0,1,0,76.56,55.72,15.72,15.72,0,0,0,60.85,40Z"/><path class="cls-2" d="M92.39,28.36A4.38,4.38,0,1,1,88,24,4.37,4.37,0,0,1,92.39,28.36Z"/></g><path class="cls-3" d="M69.93,101.2H31.26A31.3,31.3,0,0,1,0,69.93V31.26A31.29,31.29,0,0,1,31.26,0H69.93A31.3,31.3,0,0,1,101.2,31.26V69.93A31.31,31.31,0,0,1,69.93,101.2ZM31.26,11.28a20,20,0,0,0-20,20V69.93a20,20,0,0,0,20,20H69.93a20,20,0,0,0,20-20V31.26a20,20,0,0,0-20-20Z"/><path class="cls-3" d="M50.6,76.46A25.87,25.87,0,1,1,76.46,50.6,25.89,25.89,0,0,1,50.6,76.46Zm0-41.57A15.71,15.71,0,1,0,66.31,50.6,15.72,15.72,0,0,0,50.6,34.89Z"/><circle class="cls-3" cx="77.77" cy="23.23" r="4.37"/></g></g></svg>